<?xml version="1.0" encoding="utf-8" standalone="no"?>
<!DOCTYPE svg PUBLIC "-//W3C//DTD SVG 1.1//EN"
  "http://www.w3.org/Graphics/SVG/1.1/DTD/svg11.dtd">
<!-- Created with matplotlib (https://matplotlib.org/) -->
<svg height="280.512pt" version="1.1" viewBox="0 0 371.52 280.512" width="371.52pt" xmlns="http://www.w3.org/2000/svg" xmlns:xlink="http://www.w3.org/1999/xlink">
 <defs>
  <style type="text/css">
*{stroke-linecap:butt;stroke-linejoin:round;}
  </style>
 </defs>
 <g id="figure_1">
  <g id="patch_1">
   <path d="M 0 280.512 
L 371.52 280.512 
L 371.52 0 
L 0 0 
z
" style="fill:#ffffff;"/>
  </g>
  <g id="axes_1">
   <g id="patch_2">
    <path d="M 253.71961 109.543074 
Q 247.894718 110.560094 242.069827 111.577115 
" style="fill:none;opacity:0.913352;stroke:#000000;stroke-linecap:round;"/>
   </g>
   <g id="patch_3">
    <path d="M 217.790664 104.36638 
Q 215.405206 102.143929 213.019749 99.921479 
" style="fill:none;opacity:0.1;stroke:#000000;stroke-linecap:round;"/>
   </g>
   <g id="patch_4">
    <path d="M 216.36208 121.837306 
Q 212.139116 124.643931 207.916153 127.450555 
" style="fill:none;opacity:0.1;stroke:#000000;stroke-linecap:round;"/>
   </g>
   <g id="patch_5">
    <path d="M 196.971968 77.338899 
Q 196.483872 76.230608 195.995777 75.122317 
" style="fill:none;opacity:0.9363;stroke:#000000;stroke-linecap:round;"/>
   </g>
   <g id="patch_6">
    <path d="M 190.683558 97.789677 
Q 186.242357 100.571736 181.801157 103.353795 
" style="fill:none;opacity:0.1;stroke:#000000;stroke-linecap:round;"/>
   </g>
   <g id="patch_7">
    <path d="M 176.152367 61.934696 
Q 170.099434 61.828964 164.046501 61.723231 
" style="fill:none;opacity:0.85313;stroke:#000000;stroke-linecap:round;"/>
   </g>
   <g id="patch_8">
    <path d="M 143.125739 49.066148 
Q 142.556149 48.024169 141.98656 46.982189 
" style="fill:none;opacity:0.879786;stroke:#000000;stroke-linecap:round;"/>
   </g>
   <g id="patch_9">
    <path d="M 144.373196 74.490159 
Q 143.556425 76.410046 142.739655 78.329932 
" style="fill:none;opacity:0.930043;stroke:#000000;stroke-linecap:round;"/>
   </g>
   <g id="patch_10">
    <path d="M 123.067503 91.898909 
Q 117.159357 92.129485 111.251211 92.360061 
" style="fill:none;opacity:0.918702;stroke:#000000;stroke-linecap:round;"/>
   </g>
   <g id="patch_11">
    <path d="M 149.340566 98.610314 
Q 153.510918 101.105555 157.68127 103.600796 
" style="fill:none;opacity:0.1;stroke:#000000;stroke-linecap:round;"/>
   </g>
   <g id="patch_12">
    <path d="M 180.184598 120.479997 
Q 182.976123 123.069627 185.767648 125.659256 
" style="fill:none;opacity:0.1;stroke:#000000;stroke-linecap:round;"/>
   </g>
   <g id="patch_13">
    <path d="M 195.715413 149.414165 
Q 195.674097 150.798506 195.632781 152.182847 
" style="fill:none;opacity:0.1;stroke:#000000;stroke-linecap:round;"/>
   </g>
   <g id="patch_14">
    <path d="M 184.092506 175.051103 
Q 180.776143 177.656832 177.459781 180.262561 
" style="fill:none;opacity:0.94631;stroke:#000000;stroke-linecap:round;"/>
   </g>
   <g id="patch_15">
    <path d="M 206.966313 174.169366 
Q 210.807063 176.735551 214.647812 179.301737 
" style="fill:none;opacity:0.1;stroke:#000000;stroke-linecap:round;"/>
   </g>
   <g id="patch_16">
    <path d="M 166.437391 203.142215 
Q 166.444241 204.154437 166.451091 205.166659 
" style="fill:none;opacity:0.1;stroke:#000000;stroke-linecap:round;"/>
   </g>
   <g id="patch_17">
    <path d="M 178.76643 226.429527 
Q 182.82361 228.79462 186.880789 231.159712 
" style="fill:none;opacity:0.1;stroke:#000000;stroke-linecap:round;"/>
   </g>
   <g id="patch_18">
    <path d="M 199.951701 252.401938 
Q 199.965533 252.631437 199.979366 252.860936 
" style="fill:none;opacity:0.1;stroke:#000000;stroke-linecap:round;"/>
   </g>
   <g id="patch_19">
    <path d="M 210.712933 230.216499 
Q 214.2136 227.784674 217.714267 225.352848 
" style="fill:none;opacity:0.935326;stroke:#000000;stroke-linecap:round;"/>
   </g>
   <g id="patch_20">
    <path d="M 227.963362 203.210615 
Q 227.867369 202.221046 227.771375 201.231478 
" style="fill:none;opacity:0.1;stroke:#000000;stroke-linecap:round;"/>
   </g>
   <g id="text_1">
    <g clip-path="url(#p73ed536dfe)">
     <!-- O -->
     <defs>
      <path d="M 39.40625 66.21875 
Q 28.65625 66.21875 22.328125 58.203125 
Q 16.015625 50.203125 16.015625 36.375 
Q 16.015625 22.609375 22.328125 14.59375 
Q 28.65625 6.59375 39.40625 6.59375 
Q 50.140625 6.59375 56.421875 14.59375 
Q 62.703125 22.609375 62.703125 36.375 
Q 62.703125 50.203125 56.421875 58.203125 
Q 50.140625 66.21875 39.40625 66.21875 
z
M 39.40625 74.21875 
Q 54.734375 74.21875 63.90625 63.9375 
Q 73.09375 53.65625 73.09375 36.375 
Q 73.09375 19.140625 63.90625 8.859375 
Q 54.734375 -1.421875 39.40625 -1.421875 
Q 24.03125 -1.421875 14.8125 8.828125 
Q 5.609375 19.09375 5.609375 36.375 
Q 5.609375 53.65625 14.8125 63.9375 
Q 24.03125 74.21875 39.40625 74.21875 
z
" id="DejaVuSans-79"/>
     </defs>
     <g transform="translate(263.71872 109.869402)scale(0.1 -0.1)">
      <use xlink:href="#DejaVuSans-79"/>
     </g>
    </g>
   </g>
   <g id="text_2">
    <g clip-path="url(#p73ed536dfe)">
     <!-- C -->
     <defs>
      <path d="M 64.40625 67.28125 
L 64.40625 56.890625 
Q 59.421875 61.53125 53.78125 63.8125 
Q 48.140625 66.109375 41.796875 66.109375 
Q 29.296875 66.109375 22.65625 58.46875 
Q 16.015625 50.828125 16.015625 36.375 
Q 16.015625 21.96875 22.65625 14.328125 
Q 29.296875 6.6875 41.796875 6.6875 
Q 48.140625 6.6875 53.78125 8.984375 
Q 59.421875 11.28125 64.40625 15.921875 
L 64.40625 5.609375 
Q 59.234375 2.09375 53.4375 0.328125 
Q 47.65625 -1.421875 41.21875 -1.421875 
Q 24.65625 -1.421875 15.125 8.703125 
Q 5.609375 18.84375 5.609375 36.375 
Q 5.609375 53.953125 15.125 64.078125 
Q 24.65625 74.21875 41.21875 74.21875 
Q 47.75 74.21875 53.53125 72.484375 
Q 59.328125 70.75 64.40625 67.28125 
z
" id="DejaVuSans-67"/>
     </defs>
     <g transform="translate(224.649264 116.768509)scale(0.1 -0.1)">
      <use xlink:href="#DejaVuSans-67"/>
     </g>
    </g>
   </g>
   <g id="text_3">
    <g clip-path="url(#p73ed536dfe)">
     <!-- C -->
     <g transform="translate(199.179978 93.03963)scale(0.1 -0.1)">
      <use xlink:href="#DejaVuSans-67"/>
     </g>
    </g>
   </g>
   <g id="text_4">
    <g clip-path="url(#p73ed536dfe)">
     <!-- S -->
     <defs>
      <path d="M 53.515625 70.515625 
L 53.515625 60.890625 
Q 47.90625 63.578125 42.921875 64.890625 
Q 37.9375 66.21875 33.296875 66.21875 
Q 25.25 66.21875 20.875 63.09375 
Q 16.5 59.96875 16.5 54.203125 
Q 16.5 49.359375 19.40625 46.890625 
Q 22.3125 44.4375 30.421875 42.921875 
L 36.375 41.703125 
Q 47.40625 39.59375 52.65625 34.296875 
Q 57.90625 29 57.90625 20.125 
Q 57.90625 9.515625 50.796875 4.046875 
Q 43.703125 -1.421875 29.984375 -1.421875 
Q 24.8125 -1.421875 18.96875 -0.25 
Q 13.140625 0.921875 6.890625 3.21875 
L 6.890625 13.375 
Q 12.890625 10.015625 18.65625 8.296875 
Q 24.421875 6.59375 29.984375 6.59375 
Q 38.421875 6.59375 43.015625 9.90625 
Q 47.609375 13.234375 47.609375 19.390625 
Q 47.609375 24.75 44.3125 27.78125 
Q 41.015625 30.8125 33.5 32.328125 
L 27.484375 33.5 
Q 16.453125 35.6875 11.515625 40.375 
Q 6.59375 45.0625 6.59375 53.421875 
Q 6.59375 63.09375 13.40625 68.65625 
Q 20.21875 74.21875 32.171875 74.21875 
Q 37.3125 74.21875 42.625 73.28125 
Q 47.953125 72.359375 53.515625 70.515625 
z
" id="DejaVuSans-83"/>
     </defs>
     <g transform="translate(187.122498 64.941144)scale(0.1 -0.1)">
      <use xlink:href="#DejaVuSans-83"/>
     </g>
    </g>
   </g>
   <g id="text_5">
    <g clip-path="url(#p73ed536dfe)">
     <!-- C -->
     <g transform="translate(146.418237 64.235664)scale(0.1 -0.1)">
      <use xlink:href="#DejaVuSans-67"/>
     </g>
    </g>
   </g>
   <g id="text_6">
    <g clip-path="url(#p73ed536dfe)">
     <!-- Br -->
     <defs>
      <path d="M 19.671875 34.8125 
L 19.671875 8.109375 
L 35.5 8.109375 
Q 43.453125 8.109375 47.28125 11.40625 
Q 51.125 14.703125 51.125 21.484375 
Q 51.125 28.328125 47.28125 31.5625 
Q 43.453125 34.8125 35.5 34.8125 
z
M 19.671875 64.796875 
L 19.671875 42.828125 
L 34.28125 42.828125 
Q 41.5 42.828125 45.03125 45.53125 
Q 48.578125 48.25 48.578125 53.8125 
Q 48.578125 59.328125 45.03125 62.0625 
Q 41.5 64.796875 34.28125 64.796875 
z
M 9.8125 72.90625 
L 35.015625 72.90625 
Q 46.296875 72.90625 52.390625 68.21875 
Q 58.5 63.53125 58.5 54.890625 
Q 58.5 48.1875 55.375 44.234375 
Q 52.25 40.28125 46.1875 39.3125 
Q 53.46875 37.75 57.5 32.78125 
Q 61.53125 27.828125 61.53125 20.40625 
Q 61.53125 10.640625 54.890625 5.3125 
Q 48.25 0 35.984375 0 
L 9.8125 0 
z
" id="DejaVuSans-66"/>
      <path d="M 41.109375 46.296875 
Q 39.59375 47.171875 37.8125 47.578125 
Q 36.03125 48 33.890625 48 
Q 26.265625 48 22.1875 43.046875 
Q 18.109375 38.09375 18.109375 28.8125 
L 18.109375 0 
L 9.078125 0 
L 9.078125 54.6875 
L 18.109375 54.6875 
L 18.109375 46.1875 
Q 20.953125 51.171875 25.484375 53.578125 
Q 30.03125 56 36.53125 56 
Q 37.453125 56 38.578125 55.875 
Q 39.703125 55.765625 41.0625 55.515625 
z
" id="DejaVuSans-114"/>
     </defs>
     <g transform="translate(129.717767 37.333341)scale(0.1 -0.1)">
      <use xlink:href="#DejaVuSans-66"/>
      <use x="68.603516" xlink:href="#DejaVuSans-114"/>
     </g>
    </g>
   </g>
   <g id="text_7">
    <g clip-path="url(#p73ed536dfe)">
     <!-- C -->
     <g transform="translate(133.710315 94.106671)scale(0.1 -0.1)">
      <use xlink:href="#DejaVuSans-67"/>
     </g>
    </g>
   </g>
   <g id="text_8">
    <g clip-path="url(#p73ed536dfe)">
     <!-- Br -->
     <g transform="translate(91.63703 95.670816)scale(0.1 -0.1)">
      <use xlink:href="#DejaVuSans-66"/>
      <use x="68.603516" xlink:href="#DejaVuSans-114"/>
     </g>
    </g>
   </g>
   <g id="text_9">
    <g clip-path="url(#p73ed536dfe)">
     <!-- C -->
     <g transform="translate(166.32475 113.620821)scale(0.1 -0.1)">
      <use xlink:href="#DejaVuSans-67"/>
     </g>
    </g>
   </g>
   <g id="text_10">
    <g clip-path="url(#p73ed536dfe)">
     <!-- N -->
     <defs>
      <path d="M 9.8125 72.90625 
L 23.09375 72.90625 
L 55.421875 11.921875 
L 55.421875 72.90625 
L 64.984375 72.90625 
L 64.984375 0 
L 51.703125 0 
L 19.390625 60.984375 
L 19.390625 0 
L 9.8125 0 
z
" id="DejaVuSans-78"/>
     </defs>
     <g transform="translate(192.396657 138.038289)scale(0.1 -0.1)">
      <use xlink:href="#DejaVuSans-78"/>
     </g>
    </g>
   </g>
   <g id="text_11">
    <g clip-path="url(#p73ed536dfe)">
     <!-- C -->
     <g transform="translate(191.719595 169.074466)scale(0.1 -0.1)">
      <use xlink:href="#DejaVuSans-67"/>
     </g>
    </g>
   </g>
   <g id="text_12">
    <g clip-path="url(#p73ed536dfe)">
     <!-- C -->
     <g transform="translate(162.850271 191.75764)scale(0.1 -0.1)">
      <use xlink:href="#DejaVuSans-67"/>
     </g>
    </g>
   </g>
   <g id="text_13">
    <g clip-path="url(#p73ed536dfe)">
     <!-- C -->
     <g transform="translate(163.055369 222.065575)scale(0.1 -0.1)">
      <use xlink:href="#DejaVuSans-67"/>
     </g>
    </g>
   </g>
   <g id="text_14">
    <g clip-path="url(#p73ed536dfe)">
     <!-- C -->
     <g transform="translate(195.609325 241.042581)scale(0.1 -0.1)">
      <use xlink:href="#DejaVuSans-67"/>
     </g>
    </g>
   </g>
   <g id="text_15">
    <g clip-path="url(#p73ed536dfe)">
     <!-- Br -->
     <g transform="translate(195.344178 269.735375)scale(0.1 -0.1)">
      <use xlink:href="#DejaVuSans-66"/>
      <use x="68.603516" xlink:href="#DejaVuSans-114"/>
     </g>
    </g>
   </g>
   <g id="text_16">
    <g clip-path="url(#p73ed536dfe)">
     <!-- C -->
     <g transform="translate(225.837212 220.044023)scale(0.1 -0.1)">
      <use xlink:href="#DejaVuSans-67"/>
     </g>
    </g>
   </g>
   <g id="text_17">
    <g clip-path="url(#p73ed536dfe)">
     <!-- C -->
     <g transform="translate(222.914772 189.917428)scale(0.1 -0.1)">
      <use xlink:href="#DejaVuSans-67"/>
     </g>
    </g>
   </g>
  </g>
 </g>
 <defs>
  <clipPath id="p73ed536dfe">
   <rect height="266.112" width="357.12" x="7.2" y="7.2"/>
  </clipPath>
 </defs>
</svg>
